<?xml version="1.0" encoding="UTF-8"?>
<svg version="1.1" viewBox="0 0 1472 1472" width="368" height="368" xmlns="http://www.w3.org/2000/svg">
<path transform="translate(1007,529)" d="m0 0 2 2-10 18-7 11-8 16-11 18-8 12-6 11-8 16-10 15-12 21-10 19-10 15-14 26-10 17-10 15-7 16-9 14-9 16-6 9-11 21-7 10-15 26-10 19-13 19-4 5h-3l-1-6 1-61 1-21 6-12 14-21 10-20 14-23 7-10 12-24 9-14 10-16 4-8 5-12 8-11-24 12-20 13-15 9-17 9-19 12-17 11-6 3-1 144 1 77v86l-2 2-7-9-8-16-9-16-9-14-12-23-14-23-8-13-8-17-7-10-18-30-7-14-13-20-9-16-9-17-14-22-12-23-16-27-6-10-8-17-10-15-12-22-5-10v-2l6 2 7 5 21 10 19 12 20 13 8 7 8 13 11 21 14 23 7 12 8 16 13 21 9 14 8 18 8 11 8 15 2 1-1-22v-107l-1-9-16-8-14-9-15-9-22-12-19-12-11-7-21-11-35-21-16-7-13-8-28-15-21-11-15-9-15-8-5-3-1-4 3-1 440-1 2 1-1 3-19 9-15 10-21 12-17 9-7 2-192 1 11 8 10 6 10 4 10 6 13 8 23 13 12 6 18 12 8 5h6l12-8 13-8 28-15 20-13 15-8 12-6 16-10 14-9 19-10 17-12 20-13 29-17 18-10 27-14z" fill="#FDFDFD"/>
<path transform="translate(1007,529)" d="m0 0 2 2-10 18-7 11-8 16-11 18-8 12-6 11-8 16-10 15-12 21-10 19-10 15-14 26-10 17-10 15-7 16-9 14-9 16-6 9-11 21-7 10-15 26-10 19-13 19-4 5h-3l-1-6 1-61 1-19h1v82h2l2-5 14-21 6-11 10-19 12-19 9-14 2-4v-5l8-11 10-17 9-15 12-22 10-16 16-29 9-14 6-11 9-17 8-13 10-18h2l3-10 5-10 4-6h2l2-5 10-17 8-11 3-5 2-9 7-11 7-9 2-5-6 3-14 9-16 8-14 9-13 8-16 8-16 9-2-1 21-14 29-17 18-10 27-14z" fill="#C1C1C0"/>
<path transform="translate(448,571)" d="m0 0 6 1 22 12 10 7 14 9 10 3 14 10 18 10 6 5h-3l-18-10-22-12-21-11-15-9-15-8-5-3z" fill="#C1C1C0"/>
<path transform="translate(761,891)" d="m0 0h1l1 56v86l-2 2-1-2v-91z" fill="#C1C1C0"/>
<path transform="translate(799,701)" d="m0 0 3 1-24 15-11 7-4 2-1 130h-1l-1-132 2-2 10-4 24-15z" fill="#C1C1C0"/>
<path transform="translate(575,712)" d="m0 0 4 5 10 17 9 15 8 16 9 15 10 15 8 16 11 20-1 2-9-15-11-21-14-22-12-23-16-27-6-10z" fill="#C1C1C0"/>
<path transform="translate(891,571)" d="m0 0 2 1-16 8-8 5-2-1 10-7 9-4z" fill="#C1C1C0"/>
<path transform="translate(744 1e3)" d="m0 0 3 3 11 21-1 2-6-10-7-14z" fill="#C1C1C0"/>
<path transform="translate(648,839)" d="m0 0 5 5 6 9 2 4-1 4-11-19z" fill="#C1C1C0"/>
<path transform="translate(680,895)" d="m0 0 3 1 8 11 1 7-3-4-6-10z" fill="#C1C1C0"/>
<path transform="translate(831,604)" d="m0 0 4 1-15 8-3-1 11-7z" fill="#C1C1C0"/>
<path transform="translate(714,952)" d="m0 0 6 5 3 9-1 3-8-15z" fill="#C1C1C0"/>
<path transform="translate(732,985)" d="m0 0 5 4 6 11-1 2-10-15z" fill="#C1C1C0"/>
<path transform="translate(698,926)" d="m0 0 5 5 5 9-1 2-9-14z" fill="#C1C1C0"/>
<path transform="translate(707,720)" d="m0 0 9 2 2 5-1 7h-1l-1-9-8-4z" fill="#C1C1C0"/>
</svg>
