<svg width="112" height="100" viewBox="0 0 112 100" fill="none" xmlns="http://www.w3.org/2000/svg">
<path d="M111.601 0L112 0.395257L110.004 3.95257L108.606 6.12648L107.009 9.28854L104.813 12.8458L103.216 15.2174L102.018 17.3913L100.421 20.5534L98.4242 23.5178L96.0285 27.668L94.0321 31.4229L92.0357 34.3874L89.2406 39.5257L87.2442 42.8854L85.2478 45.8498L83.8503 49.0119L82.0535 51.7787L80.2567 54.9407L79.0588 56.7194L76.8627 60.8696L75.4652 62.8458L72.4706 67.9842L70.4742 71.7391L67.8788 75.4941L67.0802 76.4822H66.4813L66.2816 75.2964L66.4813 63.2411L66.6809 59.0909L67.8788 56.7194L70.6738 52.5692L72.6702 48.6166L75.4652 44.0711L76.8627 42.0949L79.2585 37.3518L81.0553 34.585L83.0517 31.4229L83.8503 29.8419L84.8485 27.4704L86.4456 25.2964L81.6542 27.668L77.6613 30.2372L74.6667 32.0158L71.2727 33.7945L67.4795 36.166L64.0856 38.3399L62.8877 38.9328L62.6881 67.3913L62.8877 82.6087V99.6047L62.4884 100L61.0909 98.2213L59.4938 95.0593L57.697 91.8972L55.9002 89.1304L53.5045 84.585L50.7094 80.0395L49.1123 77.4704L47.5152 74.1107L46.1176 72.1344L42.5241 66.2055L41.1266 63.4387L38.5312 59.4862L36.7344 56.3241L34.9376 52.9644L32.1426 48.6166L29.7469 44.0711L26.5526 38.7352L25.3547 36.7589L23.7576 33.3992L21.7611 30.4348L19.3654 26.087L18.3672 24.1107V23.7154L19.5651 24.1107L20.9626 25.0988L25.1551 27.0751L28.9483 29.4466L32.9412 32.0158L34.5383 33.3992L36.1355 35.9684L38.3316 40.1186L41.1266 44.664L42.5241 47.0356L44.1212 50.1976L46.7166 54.3478L48.5134 57.1146L50.1105 60.6719L51.7077 62.8458L53.3048 65.8103L53.7041 66.0079L53.5045 61.6601V40.5138L53.3048 38.7352L50.1105 37.1541L47.3155 35.3755L44.3209 33.5968L39.9287 31.2253L36.1355 28.8538L33.9394 27.4704L29.7469 25.2964L22.7594 21.1462L19.5651 19.7628L16.9697 18.1818L11.3797 15.2174L7.18717 13.0435L4.19251 11.2648L1.19786 9.68379L0.199643 9.09091L0 8.3004L0.59893 8.10277L88.4421 7.90514L88.8414 8.10277L88.6417 8.69565L84.8485 10.4743L81.8538 12.4506L77.6613 14.8221L74.2674 16.6008L72.8699 16.996L34.5383 17.1937L36.7344 18.7747L38.7308 19.9605L40.7273 20.751L42.7237 21.9368L45.3191 23.5178L49.9109 26.087L52.3066 27.2727L55.9002 29.6443L57.4973 30.6324H58.6952L61.0909 29.0514L63.6863 27.4704L69.2763 24.5059L73.2692 21.9368L76.2638 20.3557L78.6595 19.17L81.8538 17.1937L84.6488 15.415L88.4421 13.4387L91.836 11.0672L95.8289 8.49802L101.619 5.13834L105.212 3.16206L110.602 0.395257L111.601 0Z" fill="#FDFDFD"/>
</svg>
